<svg width="88" height="78" viewBox="0 0 88 78" fill="none" xmlns="http://www.w3.org/2000/svg">
<path d="M11.2528 58.7001L11.4564 57.879L10.859 57.2799C4.97829 51.3826 1.5 43.9467 1.5 35.875C1.5 17.2311 20.2192 1.625 44 1.625C67.7808 1.625 86.5 17.2311 86.5 35.875C86.5 54.5189 67.7808 70.125 44 70.125C37.5854 70.125 31.525 68.939 26.0687 66.8867L25.2718 66.5869L24.6059 67.1175C20.5404 70.3567 12.4318 75.533 1.66212 75.6238C2.23465 74.9899 3.8093 73.1734 5.55066 70.6371C7.67172 67.5477 10.1165 63.2814 11.2528 58.7001ZM1.46194 75.8414C1.46376 75.8395 1.46568 75.8374 1.46767 75.8353C1.46587 75.8374 1.46401 75.8395 1.46209 75.8415L1.46194 75.8414Z" stroke="black" stroke-width="3"/>
</svg>
