<svg width="89" height="119" viewBox="0 0 89 119" fill="none" xmlns="http://www.w3.org/2000/svg">
<g clip-path="url(#clip0)">
<path d="M74.8649 63.0713L74.8656 63.0678C75.4681 60.3745 73.4408 57.8333 70.6901 57.8333H65.1508C63.1675 57.8333 61.3915 59.2138 61.0143 61.2411C58.8733 71.0978 57.6256 77.4379 56.9044 81.6605C55.8734 77.1535 54.3433 70.6179 52.0776 61.1401L52.0771 61.1377C51.6136 59.2123 49.8982 57.8565 47.907 57.8565H41.1625C39.1918 57.8565 37.4627 59.1689 36.9934 61.1108C36.1942 64.3652 35.4871 67.2406 34.8613 69.7854C33.6145 74.8555 32.6905 78.6128 32.0047 81.4395C31.2627 76.9389 30.0835 70.503 28.2413 61.2916C27.845 59.2526 26.0571 57.8333 24.0346 57.8333H18.3562C15.6162 57.8333 13.5745 60.3649 14.1812 63.0469C14.1814 63.0475 14.1815 63.0482 14.1816 63.0488L22.9399 101.974C22.9403 101.976 22.9407 101.978 22.9411 101.98C23.3729 103.947 25.1223 105.333 27.1172 105.333H35.7159C37.684 105.333 39.3947 103.979 39.8606 102.084C40.7956 98.3319 41.5781 95.2079 42.2342 92.5883C43.2005 88.7303 43.8927 85.9665 44.3945 83.9025C44.7802 85.4973 45.3545 87.7891 46.2614 91.4079C46.943 94.128 47.8125 97.5978 48.9309 102.085C49.3971 103.979 51.1076 105.333 53.0755 105.333H61.8828C63.8586 105.333 65.6231 103.988 66.0589 102.003C66.0593 102.001 66.0597 101.999 66.0601 101.998L74.8649 63.0713ZM60.8333 1.50089C61.892 1.52266 62.8883 1.94503 63.626 2.68251L63.6266 2.68306L86.3164 25.3961L86.3169 25.3966C87.0565 26.1362 87.4769 27.1328 87.4991 28.1667H60.8333V1.50089ZM5.5625 1.5H50.4167V31.5208C50.4167 35.4086 53.5914 38.5833 57.4792 38.5833H87.5V113.104C87.5 115.358 85.6916 117.167 83.4375 117.167H5.5625C3.30837 117.167 1.5 115.358 1.5 113.104V5.5625C1.5 3.30837 3.30837 1.5 5.5625 1.5Z" stroke="black" stroke-width="3"/>
</g>
<defs>
<clipPath id="clip0">
<rect width="89" height="118.667" fill="white"/>
</clipPath>
</defs>
</svg>
