<svg width="89" height="119" viewBox="0 0 89 119" fill="none" xmlns="http://www.w3.org/2000/svg">
<g clip-path="url(#clip0)">
<path d="M74.3777 62.9587L74.3772 62.961L65.5715 101.891C65.5713 101.892 65.571 101.894 65.5707 101.895C65.1872 103.643 63.6325 104.833 61.8828 104.833H53.0755C51.339 104.833 49.828 103.637 49.4165 101.965C48.2963 97.4714 47.426 93.9987 46.7443 91.2781C45.6084 86.7453 44.9957 84.3001 44.6213 82.6973C44.5369 82.3359 44.4643 82.0158 44.4004 81.7235C43.8936 83.9033 43.084 87.1361 41.7498 92.4636C41.0938 95.083 40.311 98.2088 39.375 101.965C38.9637 103.637 37.4527 104.833 35.7159 104.833H27.1172C25.3546 104.833 23.8098 103.608 23.4292 101.871C23.429 101.87 23.4287 101.869 23.4285 101.868L14.6693 62.9382C14.6692 62.9381 14.6692 62.938 14.6692 62.9379C14.1327 60.5701 15.9343 58.3333 18.3562 58.3333H24.0346C25.8234 58.3333 27.4016 59.5886 27.7507 61.3885M74.3777 62.9587L26.7695 61.5815L27.7514 61.392C27.7512 61.3908 27.751 61.3896 27.7507 61.3885M74.3777 62.9587C74.9107 60.576 73.1188 58.3333 70.6901 58.3333H65.1508C63.3958 58.3333 61.833 59.5552 61.5046 61.3397C58.8801 73.4217 57.6004 80.2081 56.9873 84.2832M74.3777 62.9587L56.9873 84.2832M27.7507 61.3885C29.9622 72.4458 31.2158 79.493 31.9047 83.9883C32.6187 80.9989 33.7015 76.5958 35.3493 69.8949C35.9743 67.3531 36.6807 64.4808 37.479 61.2296C37.8922 59.5175 39.4159 58.3565 41.1625 58.3565H47.907C49.6671 58.3565 51.1815 59.5539 51.591 61.2547L51.5913 61.2563C54.3205 72.6734 55.9811 79.8158 56.9873 84.2832M27.7507 61.3885C27.7505 61.3874 27.7503 61.3864 27.7501 61.3854L56.9873 84.2832M86.6701 25.0427L86.6705 25.043C87.5249 25.8975 88 27.0565 88 28.2529V28.6667H60.3333V1H60.7471C61.9687 1 63.1269 1.47651 63.9798 2.32914C63.9799 2.32926 63.98 2.32938 63.9801 2.3295L86.6701 25.0427ZM50.9167 1V31.5208C50.9167 35.1325 53.8675 38.0833 57.4792 38.0833H88V113.104C88 115.634 85.9678 117.667 83.4375 117.667H5.5625C3.03223 117.667 1 115.634 1 113.104V5.5625C1 3.03223 3.03223 1 5.5625 1H50.9167Z" stroke="black" stroke-width="2"/>
</g>
<defs>
<clipPath id="clip0">
<rect width="89" height="118.667" fill="white"/>
</clipPath>
</defs>
</svg>
