<svg width="88" height="88" viewBox="0 0 88 88" fill="none" xmlns="http://www.w3.org/2000/svg">
<g clip-path="url(#clip0)">
<path d="M62.7558 56.8261L60.8606 59.25H63.9375H66.7391C67.4467 59.25 68.112 59.5255 68.6003 60.0138L85.7306 77.144C85.7316 77.1451 85.7326 77.1461 85.7336 77.1471C86.7498 78.1776 86.7488 79.8424 85.719 80.8722L80.8549 85.7362L80.8493 85.7419C79.841 86.761 78.1827 86.7692 77.1497 85.7362L60.0138 68.6003C59.5255 68.112 59.25 67.4467 59.25 66.7391V63.9375V60.8606L56.8261 62.7558C51.014 67.3001 43.7058 70 35.75 70C16.83 70 1.5 54.67 1.5 35.75C1.5 16.83 16.83 1.5 35.75 1.5C54.67 1.5 70 16.83 70 35.75C70 43.7058 67.3001 51.014 62.7558 56.8261ZM12.25 35.75C12.25 48.7479 22.7708 59.25 35.75 59.25C48.7479 59.25 59.25 48.7292 59.25 35.75C59.25 22.7521 48.7292 12.25 35.75 12.25C22.7521 12.25 12.25 22.7708 12.25 35.75Z" stroke="black" stroke-width="3"/>
</g>
<defs>
<clipPath id="clip0">
<rect width="88" height="88" fill="white"/>
</clipPath>
</defs>
</svg>
