<svg width="89" height="79" viewBox="0 0 89 79" fill="none" xmlns="http://www.w3.org/2000/svg">
<g clip-path="url(#clip0)">
<path d="M43.5799 65.3715L44.5 66.0861L45.4201 65.3715L63.9387 50.9884C77.4342 51.6562 87.5 60.235 87.5 70.1118V71.5931C87.5 74.5229 84.2752 77.4993 79.4643 77.4993H9.53571C4.72482 77.4993 1.5 74.5229 1.5 71.5931V70.1118C1.5 60.235 11.5658 51.6562 25.0613 50.9884L43.5799 65.3715ZM5.47321 12.5437V11.2921L4.24185 11.0679L2.97561 10.8374C1.59566 10.5755 1.50497 9.93919 1.50497 9.87434C1.50497 9.80943 1.59582 9.17199 2.97933 8.91055C2.97958 8.9105 2.97983 8.91046 2.98008 8.91041L40.8397 1.82914C40.8402 1.82904 40.8408 1.82894 40.8413 1.82884C43.2424 1.38436 45.7777 1.38437 48.1787 1.82886C48.1792 1.82895 48.1797 1.82905 48.1802 1.82914L86.0015 8.92612C86.0016 8.92613 86.0016 8.92614 86.0017 8.92615C87.4064 9.18997 87.4901 9.83045 87.4901 9.88206C87.4901 9.93365 87.4065 10.5739 86.0025 10.8378C86.0023 10.8378 86.0022 10.8379 86.002 10.8379C86.0019 10.8379 86.0017 10.838 86.0015 10.838L66.8714 14.4175L64.6658 14.8302L65.8904 16.7105C67.4918 19.1694 68.4286 21.852 68.4286 24.6868C68.4286 34.4365 58.0917 42.9368 44.5 42.9368C30.9083 42.9368 20.5714 34.4365 20.5714 24.6868C20.5714 21.8571 21.5248 19.1724 23.1139 16.7039L24.3216 14.8279L22.1286 14.4175L9.01695 11.9642L7.24107 11.6319V13.4386V21.5546V22.5105L8.10748 22.9142C9.20881 23.4275 9.625 24.1365 9.625 24.6868C9.625 25.2061 9.25054 25.8702 8.23435 26.3923L7.10138 26.9744L7.49223 28.1868L10.5892 37.7927C10.5894 37.7933 10.5896 37.7939 10.5897 37.7945C10.6115 37.8649 10.5966 37.9224 10.5691 37.9619C10.5554 37.9816 10.5424 37.9908 10.5361 37.9942C10.5327 37.9961 10.5267 37.9993 10.5092 37.9993H2.20513C2.18757 37.9993 2.18159 37.9961 2.17815 37.9942C2.1719 37.9908 2.15892 37.9816 2.14521 37.9619C2.11771 37.9224 2.10278 37.8649 2.12453 37.7946C2.12471 37.794 2.12491 37.7933 2.1251 37.7927L5.22206 28.1868L5.61291 26.9744L4.47994 26.3923C3.46374 25.8702 3.08929 25.2061 3.08929 24.6868C3.08929 24.1365 3.50548 23.4275 4.60681 22.9142L5.47321 22.5105V21.5546V12.5437Z" stroke="black" stroke-width="3"/>
</g>
<defs>
<clipPath id="clip0">
<rect width="89" height="79" fill="white"/>
</clipPath>
</defs>
</svg>
