<svg width="92" height="81" viewBox="0 0 92 81" fill="none" xmlns="http://www.w3.org/2000/svg">
<path d="M84.8889 30.4046V29.2486V5.06408C84.8889 4.76126 84.7248 3.90627 84.2027 3.17299C83.7518 2.53963 83.0504 2 81.7778 2C81.0808 2 80.3924 2.23066 79.8299 2.67708L79.8287 2.67807L66.2475 13.4406L66.2468 13.4412C59.0706 19.1229 50.0686 22.25 40.8889 22.25H10.2222C5.66255 22.25 2 25.9051 2 30.375V45.5625C2 50.0324 5.66255 53.6875 10.2222 53.6875H15.6049H17.8905L17.5872 55.9529C17.3756 57.5328 17.2567 59.1301 17.2567 60.75C17.2567 66.7241 18.6603 72.3695 21.1352 77.4211C21.5893 78.3473 22.6484 79 23.8753 79H35.7394C38.3822 79 39.716 76.0728 38.2911 74.2208C35.4141 70.4816 33.6995 65.8101 33.6995 60.75C33.6995 58.7941 33.9877 56.9252 34.4759 55.1556L34.8809 53.6875H36.4039H40.8889C50.0685 53.6875 59.0707 56.8146 66.2454 62.4965L66.2459 62.4969L79.8271 73.2594L79.8273 73.2596C80.3786 73.6965 81.0662 73.9368 81.7777 73.9375L84.8889 30.4046ZM84.8889 30.4046L85.8905 30.9816M84.8889 30.4046L85.8905 30.9816M85.8905 30.9816C88.3595 32.4039 90 34.9971 90 37.9688C90 40.9401 88.3597 43.5336 85.8886 44.9577L84.8873 45.5347M85.8905 30.9816L84.8873 45.5347M84.8873 45.5347V46.6905M84.8873 45.5347V46.6905M84.8873 46.6905V70.875C84.8873 71.2181 84.7177 72.0676 84.2015 72.7844M84.8873 46.6905L84.2015 72.7844M84.2015 72.7844C83.7558 73.4031 83.056 73.937 81.7779 73.9375L84.2015 72.7844ZM75.4246 61.9094L78.6667 64.4784V60.3418V15.5957V11.4591L75.4246 14.0281L70.1457 18.211C61.8757 24.7641 51.4799 28.375 40.8889 28.375H38.8889V30.375V45.5625V47.5625H40.8889C51.4799 47.5625 61.8757 51.1734 70.1457 57.7265L75.4246 61.9094Z" stroke="black" stroke-width="4"/>
</svg>
