<svg width="92" height="81" viewBox="0 0 92 81" fill="none" xmlns="http://www.w3.org/2000/svg">
<path d="M85.3889 30.1156V29.2486V5.06408C85.3889 4.66393 85.1962 3.70618 84.61 2.88297C84.0772 2.13471 83.2318 1.5 81.7778 1.5C80.9707 1.5 80.1721 1.76712 79.5191 2.28546L79.5182 2.2862L65.937 13.0488L65.9365 13.0492C58.8489 18.6607 49.9562 21.75 40.8889 21.75H10.2222C5.39092 21.75 1.5 25.6244 1.5 30.375V45.5625C1.5 50.3131 5.39092 54.1875 10.2222 54.1875H15.6049H17.3191L17.0916 55.8866C16.8774 57.4859 16.7567 59.1055 16.7567 60.75C16.7567 66.8035 18.1791 72.5239 20.6862 77.6411C21.234 78.7585 22.4807 79.5 23.8753 79.5H35.7394C38.7617 79.5 40.3865 76.1244 38.6874 73.9159C35.8748 70.2603 34.1995 65.6952 34.1995 60.75C34.1995 58.8436 34.4803 57.0196 34.9579 55.2886L35.2617 54.1875H36.4039H40.8889C49.9562 54.1875 58.8489 57.2768 65.935 62.8884L65.9354 62.8887L79.5166 73.6513L79.5167 73.6514C80.1566 74.1586 80.9537 74.4368 81.7773 74.4375L85.3889 30.1156ZM85.3889 30.1156L86.1401 30.5483M85.3889 30.1156L86.1401 30.5483M86.1401 30.5483C88.7525 32.0533 90.5 34.8054 90.5 37.9688C90.5 41.1319 88.7526 43.8842 86.1383 45.3909L85.3873 45.8237M86.1401 30.5483L85.3873 45.8237M85.3873 45.8237V46.6905M85.3873 45.8237V46.6905M85.3873 46.6905V70.875C85.3873 71.3147 85.1894 72.2682 84.6072 73.0766M85.3873 46.6905L84.6072 73.0766M84.6072 73.0766C84.0779 73.8115 83.2336 74.4371 81.7775 74.4375L84.6072 73.0766ZM75.7351 61.5175L78.1667 63.4443V60.3418V15.5957V12.4932L75.7351 14.42L70.4563 18.6029C62.0975 25.2263 51.5922 28.875 40.8889 28.875H39.3889V30.375V45.5625V47.0625H40.8889C51.5922 47.0625 62.0975 50.7112 70.4563 57.3346L75.7351 61.5175Z" stroke="black" stroke-width="3"/>
</svg>
