<svg width="88" height="78" viewBox="0 0 88 78" fill="none" xmlns="http://www.w3.org/2000/svg">
<path d="M22.854 10.0514L23.0999 11.25H24.3234H84.3318C85.7272 11.25 86.751 12.5395 86.4448 13.8832L79.2225 45.5707L80.685 45.9041L79.2225 45.5708C78.9993 46.5502 78.1244 47.25 77.1095 47.25H32.3235H30.4846L30.8541 49.0514L31.854 53.9264L32.0999 55.125H33.3234H74.3317C75.7271 55.125 76.7509 56.4145 76.4447 57.7583L75.6018 61.4565L75.3366 62.6201L76.4108 63.14C78.7702 64.2821 80.3889 66.6896 80.3889 69.4688C80.3889 73.348 77.234 76.5 73.3333 76.5C69.4326 76.5 66.2778 73.348 66.2778 69.4688C66.2778 67.5026 67.0869 65.727 68.3961 64.448L71.03 61.875H67.348H35.3186H31.6362L34.2704 64.448C35.5798 65.727 36.3889 67.5026 36.3889 69.4688C36.3889 73.348 33.234 76.5 29.3333 76.5C25.4326 76.5 22.2778 73.348 22.2778 69.4688C22.2778 66.8648 23.6993 64.5886 25.8218 63.3714L26.763 62.8316L26.545 61.7688L15.8126 9.44858L15.5668 8.25H14.3432H3.66667C2.466 8.25 1.5 7.28062 1.5 6.09375V3.65625C1.5 2.46938 2.466 1.5 3.66667 1.5H19.3308C20.3633 1.5 21.2484 2.22395 21.4537 3.22482L21.4537 3.2249L22.854 10.0514Z" stroke="black" stroke-width="3"/>
</svg>
